<?xml version="1.0" standalone="no"?>
<!DOCTYPE svg PUBLIC "-//W3C//DTD SVG 20010904//EN"
 "http://www.w3.org/TR/2001/REC-SVG-20010904/DTD/svg10.dtd">
<svg version="1.0" xmlns="http://www.w3.org/2000/svg"
 width="453.000000pt" height="242.000000pt" viewBox="0 0 453.000000 242.000000"
 preserveAspectRatio="xMidYMid meet">
<metadata>
Created by potrace 1.15, written by Peter Selinger 2001-2017
</metadata>
<g transform="translate(0.000000,242.000000) scale(0.100000,-0.100000)"
fill="#000000" stroke="none">
<path d="M555 2351 c-195 -56 -353 -191 -441 -376 -55 -114 -67 -180 -62 -330
4 -115 8 -140 36 -213 122 -326 457 -517 784 -447 174 37 317 130 428 279 23
32 38 61 34 65 -5 5 -138 83 -297 176 l-288 168 113 66 c62 37 194 113 293
171 99 57 182 105 184 107 10 8 -79 120 -140 177 -76 70 -197 137 -294 161
-82 21 -272 19 -350 -4z"/>
<path d="M3620 2354 c-109 -28 -219 -93 -305 -179 -91 -91 -144 -175 -182
-290 -23 -70 -27 -96 -27 -210 0 -77 5 -148 13 -175 95 -331 384 -546 711
-526 175 10 317 73 441 196 127 125 196 270 207 428 l5 82 -343 0 c-273 0
-340 3 -332 13 17 21 332 577 332 586 0 12 -107 57 -179 76 -75 19 -266 19
-341 -1z"/>
<path d="M1790 2242 c-241 -178 -346 -495 -256 -777 68 -215 236 -387 451
-461 70 -25 95 -28 205 -28 112 -1 134 2 214 28 217 71 387 248 457 476 30 97
33 271 5 370 -24 90 -78 196 -134 266 -50 61 -160 156 -175 151 -5 -1 -86
-129 -179 -282 -93 -154 -173 -284 -178 -288 -4 -5 -79 127 -166 292 -88 165
-163 301 -169 301 -5 0 -39 -22 -75 -48z"/>
<path d="M1776 780 c-37 -5 -40 -9 -90 -102 l-52 -97 -54 100 -54 99 -44 0
c-24 0 -42 -4 -40 -8 2 -5 39 -72 83 -150 107 -191 103 -191 213 9 46 83 82
152 80 153 -2 1 -20 -1 -42 -4z"/>
<path d="M62 768 c-8 -8 -12 -54 -12 -140 0 -116 2 -128 19 -138 11 -5 74 -10
140 -10 108 0 123 2 141 20 27 27 29 100 3 100 -10 0 -28 3 -40 6 -20 6 -23 3
-23 -25 l0 -31 -85 0 -85 0 0 85 0 85 85 0 85 0 0 -28 c0 -28 2 -29 38 -23 31
5 37 10 40 34 2 16 -4 39 -13 53 -15 23 -19 24 -148 24 -90 0 -137 -4 -145
-12z"/>
<path d="M514 755 c-13 -19 -15 -46 -12 -135 4 -145 -2 -140 183 -140 187 0
180 -6 180 148 0 86 -4 123 -14 135 -11 15 -36 17 -167 17 -152 0 -154 0 -170
-25z m276 -120 l0 -85 -105 0 -105 0 0 85 0 85 105 0 105 0 0 -85z"/>
<path d="M1010 630 l0 -150 35 0 34 0 3 95 3 94 110 -94 c80 -69 117 -95 138
-95 l27 0 0 150 0 150 -41 0 -41 0 4 -93 3 -93 -109 93 c-82 70 -117 93 -138
93 l-28 0 0 -150z"/>
<path d="M1900 630 l0 -150 155 0 155 0 0 35 0 35 -115 0 -115 0 0 30 0 30 65
0 65 0 0 30 0 30 -65 0 c-63 0 -65 1 -65 25 l0 25 110 0 110 0 0 30 0 30 -150
0 -150 0 0 -150z"/>
<path d="M2330 630 l0 -150 40 0 40 0 0 55 c0 53 1 55 28 55 19 -1 45 -17 86
-55 54 -51 62 -55 107 -55 27 0 49 3 49 8 0 4 -26 27 -57 52 l-57 44 28 7 c49
13 56 26 56 100 0 57 -3 70 -19 79 -11 5 -83 10 -160 10 l-141 0 0 -150z"/>
<path d="M2799 763 c-10 -11 -14 -48 -14 -130 0 -154 -1 -153 175 -153 163 0
170 5 178 108 l5 72 -97 0 -96 0 0 -30 c0 -30 1 -30 55 -30 52 0 55 -1 55 -25
l0 -25 -100 0 -100 0 0 85 0 85 100 0 c82 0 100 -3 100 -15 0 -17 32 -20 60
-5 13 7 16 17 13 32 -12 46 -18 48 -173 48 -125 0 -150 -3 -161 -17z"/>
<path d="M3280 630 l0 -150 155 0 155 0 0 35 0 35 -115 0 -115 0 0 30 0 30 65
0 65 0 0 30 0 30 -65 0 c-63 0 -65 1 -65 25 l0 25 110 0 110 0 0 30 0 30 -150
0 -150 0 0 -150z"/>
<path d="M3710 630 l0 -150 35 0 34 0 3 96 3 96 112 -96 c78 -68 119 -96 137
-96 l26 0 0 150 0 150 -35 0 -35 0 0 -97 c0 -54 -4 -93 -8 -88 -4 6 -53 50
-110 98 -79 67 -110 87 -132 87 l-30 0 0 -150z"/>
<path d="M4140 750 l0 -30 70 0 70 0 0 -120 0 -120 35 0 35 0 0 120 0 120 65
0 65 0 0 30 0 30 -170 0 -170 0 0 -30z"/>
<path d="M60 200 l0 -150 31 0 30 0 -3 105 c-2 58 -3 105 -3 105 0 0 27 -38
60 -85 33 -47 65 -85 71 -85 6 0 36 37 65 82 l54 82 3 -102 3 -102 30 0 30 0
-3 148 -3 147 -25 0 c-20 0 -37 -18 -89 -92 l-65 -92 -64 87 c-69 93 -77 102
-104 102 -16 0 -18 -14 -18 -150z"/>
<path d="M580 200 l0 -150 146 0 c145 0 145 0 142 22 -3 22 -7 23 -118 26
l-115 3 3 39 4 40 64 0 c62 0 64 1 64 25 0 24 -2 25 -67 25 l-68 0 0 30 0 30
113 0 112 0 0 30 0 30 -140 0 -140 0 0 -150z"/>
<path d="M980 201 l0 -151 121 0 c105 0 126 3 155 20 63 39 82 148 36 209 -42
56 -62 63 -191 69 l-121 5 0 -152z m234 78 c56 -26 56 -142 1 -167 -14 -7 -59
-12 -100 -12 l-75 0 0 95 0 95 75 0 c41 0 85 -5 99 -11z"/>
<path d="M1440 200 l0 -150 30 0 30 0 0 150 0 150 -30 0 -30 0 0 -150z"/>
<path d="M1752 338 c-13 -17 -152 -274 -152 -282 0 -3 13 -6 29 -6 22 0 31 6
41 30 l12 30 98 0 98 0 12 -30 c10 -25 18 -30 47 -30 19 0 33 3 31 8 -16 38
-154 279 -162 284 -17 12 -42 9 -54 -4z"/>
<path d="M2318 339 c-34 -13 -41 -45 -36 -174 2 -71 7 -98 18 -105 23 -15 283
-13 298 2 7 7 12 42 12 85 l0 73 -85 0 c-84 0 -85 0 -85 -25 0 -24 3 -25 55
-25 l55 0 0 -35 0 -35 -105 0 -105 0 0 95 0 95 105 0 c100 0 105 -1 105 -21 0
-17 4 -20 23 -15 12 3 25 6 30 6 14 0 7 58 -10 71 -20 17 -235 23 -275 8z"/>
<path d="M2750 200 l0 -150 30 0 c30 0 30 1 30 55 l0 55 37 0 c32 0 46 -8 94
-56 52 -52 59 -55 98 -52 l43 3 -61 50 -61 50 34 3 c49 4 57 20 54 98 -4 89
-12 94 -175 94 l-123 0 0 -150z"/>
<path d="M3223 340 c-38 -16 -45 -44 -41 -161 2 -84 7 -112 18 -119 8 -5 79
-10 156 -10 120 0 144 3 155 17 10 11 14 48 14 129 0 151 3 148 -158 151 -67
2 -132 -2 -144 -7z m247 -145 l0 -95 -115 0 -115 0 0 95 0 95 115 0 115 0 0
-95z"/>
<path d="M3670 219 c0 -72 5 -139 10 -150 10 -17 22 -19 143 -19 73 0 139 5
147 10 12 7 16 38 18 150 l4 140 -31 0 -31 0 0 -125 0 -125 -100 0 -100 0 0
125 0 125 -30 0 -30 0 0 -131z"/>
<path d="M4140 201 l0 -151 30 0 c30 0 30 1 30 55 l0 55 104 0 c127 0 136 6
136 89 0 92 -5 95 -164 99 l-136 4 0 -151z"/>
</g>
</svg>
