<?xml version="1.0" standalone="no"?>
<!DOCTYPE svg PUBLIC "-//W3C//DTD SVG 20010904//EN"
 "http://www.w3.org/TR/2001/REC-SVG-20010904/DTD/svg10.dtd">
<svg version="1.0" xmlns="http://www.w3.org/2000/svg"
 width="480.000000pt" height="480.000000pt" viewBox="0 0 480.000000 480.000000"
 preserveAspectRatio="xMidYMid meet">
<metadata>
Created by potrace 1.15, written by Peter Selinger 2001-2017
</metadata>
<g transform="translate(0.000000,480.000000) scale(0.100000,-0.100000)"
fill="#000000" stroke="none">
<path d="M3480 2605 c-240 -48 -419 -210 -475 -430 -21 -85 -19 -235 5 -329
60 -235 202 -362 595 -531 175 -75 261 -123 304 -170 37 -40 61 -95 61 -140 0
-78 -58 -158 -143 -196 -45 -21 -67 -24 -167 -23 -96 0 -125 4 -172 23 -83 32
-166 98 -222 174 l-49 67 -41 -23 c-185 -103 -316 -184 -316 -193 0 -24 99
-161 153 -211 114 -108 263 -185 427 -220 134 -28 365 -24 492 10 200 53 351
167 424 321 98 205 77 472 -50 650 -86 121 -225 215 -480 327 -217 95 -313
147 -346 188 -52 62 -64 145 -31 217 68 151 314 151 433 1 21 -27 42 -56 46
-64 7 -12 41 5 178 93 93 59 171 109 174 111 8 7 -33 72 -84 133 -133 158
-309 231 -549 229 -56 0 -131 -7 -167 -14z"/>
<path d="M2158 1778 l-3 -823 -30 -60 c-42 -84 -89 -109 -200 -110 -63 0 -89
5 -120 22 -49 25 -112 91 -149 156 -16 26 -29 47 -31 47 -8 0 -355 -211 -359
-219 -9 -14 76 -142 133 -200 145 -149 355 -223 590 -208 196 12 332 67 442
178 77 76 118 153 151 279 23 85 23 86 23 920 l0 835 -222 3 -222 2 -3 -822z"/>
</g>
</svg>
